<svg width="32" height="32" viewBox="0 0 32 32" fill="none" xmlns="http://www.w3.org/2000/svg">
<g clip-path="url(#clip0_1_3911)">
<rect width="32" height="32" rx="8" fill="white"/>
<rect width="32" height="32" fill="black"/>
<g filter="url(#filter0_f_1_3911)">
<path d="M13.2822 3.35596L13.2832 3.35791C13.2842 3.35969 13.2861 3.36307 13.2881 3.3667C13.2922 3.37407 13.2986 3.38554 13.3066 3.3999C13.323 3.42911 13.3479 3.47201 13.3789 3.52686C13.4413 3.63712 13.5311 3.79529 13.6406 3.98486C13.8602 4.36485 14.1571 4.8695 14.4678 5.37158C14.7807 5.87743 15.098 6.36464 15.3604 6.71826C15.4536 6.84395 15.533 6.94054 15.5947 7.01123C18.0407 7.02534 20.2492 8.02956 21.874 9.63037H21.873C22.54 10.2865 23.108 11.0443 23.5566 11.8755L23.9707 10.4204V12.4165C25.3934 12.5331 26.6436 12.6216 27.5078 12.6216H28.8008L28.2793 13.8052C28.0325 14.3646 27.5506 15.1836 27.1504 15.9028C26.859 16.4265 26.6123 16.895 26.4502 17.2651C26.6102 17.4113 26.7063 17.5855 26.7598 17.7153C26.854 17.9445 26.8894 18.1937 26.8994 18.4136C26.9197 18.8625 26.8436 19.3975 26.6924 19.9292C26.5413 20.4605 26.3243 20.9564 26.0713 21.3276C25.9475 21.5092 25.7875 21.7027 25.5869 21.8481C25.4154 21.9724 25.1078 22.1313 24.7324 22.0728L24.2041 22.0239C22.4598 25.0166 19.1206 26.8969 15.3262 26.897C9.70195 26.8969 5.14469 22.3382 5.14453 16.7144C5.14456 16.3632 5.22598 15.9602 5.31836 15.6011C5.41458 15.2271 5.54029 14.836 5.66211 14.4878C5.7845 14.1379 5.90599 13.8204 5.99707 13.5913C6.04131 13.48 6.07865 13.3886 6.10547 13.3237C6.21352 12.4484 6.3997 11.4945 6.72363 10.4966C7.49402 8.12359 9.02405 5.53812 12.0146 3.11182L12.7939 2.47998L13.2822 3.35596Z" fill="url(#paint0_linear_1_3911)"/>
</g>
<path d="M13.2827 4.47607L13.2837 4.47803C13.2847 4.47979 13.2866 4.48326 13.2886 4.48682C13.2927 4.49416 13.2991 4.50573 13.3071 4.52002C13.3235 4.5492 13.3484 4.5922 13.3794 4.64697C13.4418 4.75721 13.5316 4.91547 13.6411 5.10498C13.8607 5.48493 14.1577 5.98967 14.4683 6.4917C14.7812 6.99747 15.0985 7.48477 15.3608 7.83838C15.454 7.96398 15.5335 8.06067 15.5952 8.13135C18.0412 8.14541 20.2497 9.14974 21.8745 10.7505H21.8735C22.5404 11.4066 23.1084 12.1645 23.5571 12.9956L23.9712 11.5405V13.5366C25.3938 13.6532 26.6441 13.7417 27.5083 13.7417H28.8013L28.2798 14.9253C28.0329 15.4848 27.5511 16.3037 27.1509 17.0229C26.8594 17.5467 26.6128 18.0151 26.4507 18.3853C26.6106 18.5314 26.7068 18.7057 26.7603 18.8354C26.8545 19.0646 26.8899 19.3138 26.8999 19.5337C26.9202 19.9826 26.8441 20.5176 26.6929 21.0493C26.5417 21.5807 26.3248 22.0765 26.0718 22.4478C25.948 22.6293 25.788 22.8228 25.5874 22.9683C25.4159 23.0925 25.1083 23.2514 24.7329 23.1929L24.2046 23.144C22.4603 26.1368 19.1211 28.0171 15.3267 28.0171C9.70259 28.0168 5.1452 23.4582 5.14502 17.8345C5.14504 17.4833 5.22646 17.0804 5.31885 16.7212C5.41507 16.3471 5.54076 15.9562 5.6626 15.6079C5.78501 15.258 5.90646 14.9406 5.99756 14.7114C6.04183 14.6001 6.07912 14.5088 6.10596 14.4438C6.21401 13.5685 6.40017 12.6146 6.72412 11.6167C7.49448 9.24368 9.02453 6.65829 12.0151 4.23193L12.7944 3.6001L13.2827 4.47607Z" fill="black"/>
<g filter="url(#filter1_iii_1_3911)">
<path d="M13.2817 4.47607L13.2827 4.47803C13.2837 4.47979 13.2856 4.48318 13.2876 4.48682C13.2917 4.49417 13.2981 4.50566 13.3062 4.52002C13.3225 4.54921 13.3474 4.59212 13.3784 4.64697C13.4408 4.75723 13.5306 4.9154 13.6401 5.10498C13.8597 5.48496 14.1567 5.98962 14.4673 6.4917C14.7802 6.99753 15.0975 7.48475 15.3599 7.83838C15.4531 7.96406 15.5325 8.06065 15.5942 8.13135C18.0403 8.14539 20.2487 9.14968 21.8735 10.7505H21.8726C22.5395 11.4066 23.1074 12.1644 23.5562 12.9956L23.9702 11.5405V13.5366C25.3929 13.6533 26.6431 13.7417 27.5073 13.7417H28.8003L28.2788 14.9253C28.0319 15.4848 27.5501 16.3037 27.1499 17.0229C26.8585 17.5467 26.6118 18.0151 26.4497 18.3853C26.6097 18.5314 26.7058 18.7056 26.7593 18.8354C26.8535 19.0646 26.889 19.3138 26.8989 19.5337C26.9192 19.9826 26.8431 20.5176 26.6919 21.0493C26.5408 21.5807 26.3238 22.0765 26.0708 22.4478C25.947 22.6293 25.787 22.8229 25.5864 22.9683C25.4149 23.0925 25.1073 23.2515 24.7319 23.1929L24.2036 23.144C22.4593 26.1367 19.1201 28.0171 15.3257 28.0171C9.70157 28.0169 5.14422 23.4583 5.14404 17.8345C5.14406 17.4833 5.2255 17.0803 5.31787 16.7212C5.41408 16.3472 5.5398 15.9562 5.66162 15.6079C5.78401 15.2581 5.90549 14.9406 5.99658 14.7114C6.04082 14.6001 6.07816 14.5088 6.10498 14.4438C6.21303 13.5685 6.39922 12.6146 6.72314 11.6167C7.49351 9.24371 9.0236 6.65825 12.0142 4.23193L12.7935 3.6001L13.2817 4.47607Z" fill="white" fill-opacity="0.01"/>
</g>
</g>
<defs>
<filter id="filter0_f_1_3911" x="-94.8555" y="-97.52" width="223.656" height="224.417" filterUnits="userSpaceOnUse" color-interpolation-filters="sRGB">
<feFlood flood-opacity="0" result="BackgroundImageFix"/>
<feBlend mode="normal" in="SourceGraphic" in2="BackgroundImageFix" result="shape"/>
<feGaussianBlur stdDeviation="44.6" result="effect1_foregroundBlur_1_3911"/>
</filter>
<filter id="filter1_iii_1_3911" x="5.14404" y="3.6001" width="35.6562" height="40.517" filterUnits="userSpaceOnUse" color-interpolation-filters="sRGB">
<feFlood flood-opacity="0" result="BackgroundImageFix"/>
<feBlend mode="normal" in="SourceGraphic" in2="BackgroundImageFix" result="shape"/>
<feColorMatrix in="SourceAlpha" type="matrix" values="0 0 0 0 0 0 0 0 0 0 0 0 0 0 0 0 0 0 127 0" result="hardAlpha"/>
<feOffset/>
<feGaussianBlur stdDeviation="5"/>
<feComposite in2="hardAlpha" operator="arithmetic" k2="-1" k3="1"/>
<feColorMatrix type="matrix" values="0 0 0 0 1 0 0 0 0 1 0 0 0 0 1 0 0 0 0.25 0"/>
<feBlend mode="normal" in2="shape" result="effect1_innerShadow_1_3911"/>
<feColorMatrix in="SourceAlpha" type="matrix" values="0 0 0 0 0 0 0 0 0 0 0 0 0 0 0 0 0 0 127 0" result="hardAlpha"/>
<feOffset dx="11" dy="30"/>
<feGaussianBlur stdDeviation="8.05"/>
<feComposite in2="hardAlpha" operator="arithmetic" k2="-1" k3="1"/>
<feColorMatrix type="matrix" values="0 0 0 0 0.414445 0 0 0 0 0.414445 0 0 0 0 0.414445 0 0 0 0.1 0"/>
<feBlend mode="normal" in2="effect1_innerShadow_1_3911" result="effect2_innerShadow_1_3911"/>
<feColorMatrix in="SourceAlpha" type="matrix" values="0 0 0 0 0 0 0 0 0 0 0 0 0 0 0 0 0 0 127 0" result="hardAlpha"/>
<feOffset dx="12" dy="8"/>
<feGaussianBlur stdDeviation="6.1"/>
<feComposite in2="hardAlpha" operator="arithmetic" k2="-1" k3="1"/>
<feColorMatrix type="matrix" values="0 0 0 0 1 0 0 0 0 1 0 0 0 0 1 0 0 0 0.1 0"/>
<feBlend mode="normal" in2="effect2_innerShadow_1_3911" result="effect3_innerShadow_1_3911"/>
</filter>
<linearGradient id="paint0_linear_1_3911" x1="16.9727" y1="2.47998" x2="16.9727" y2="26.897" gradientUnits="userSpaceOnUse">
<stop stop-color="white" stop-opacity="0"/>
<stop offset="1" stop-color="white"/>
</linearGradient>
<clipPath id="clip0_1_3911">
<rect width="32" height="32" rx="8" fill="white"/>
</clipPath>
</defs>
</svg>
